<?xml version="1.0" encoding="utf-8"?>
<!-- Generator: Adobe Illustrator 22.0.1, SVG Export Plug-In . SVG Version: 6.00 Build 0)  -->
<svg version="1.1" id="Layer_1" xmlns="http://www.w3.org/2000/svg" xmlns:xlink="http://www.w3.org/1999/xlink" x="0px" y="0px"
	 viewBox="0 0 250 120" style="enable-background:new 0 0 250 120;" xml:space="preserve">
<style type="text/css">
	.st0{fill:#005589;}
	.st1{fill:#75BEE9;}
	.st2{fill:#ED1C24;}
</style>
<g>
	<g>
		<path class="st0" d="M147.5,37c1.2-0.6,2.4-1.1,3.6-1.7l0,0l-0.4-0.9l0,0c-1.5,0.7-3,1.4-4.5,2.2l0,0l0.2,0.4H147.5z"/>
		<path class="st0" d="M163,30.2c1.5-0.6,3.1-1.2,4.7-1.8l0,0l-0.3-0.9l-0.1,0c-1.6,0.6-3.2,1.2-4.7,1.8l0,0L163,30.2L163,30.2z"/>
		<path class="st0" d="M154.7,33.7c1.5-0.7,3.1-1.3,4.6-1.9l0,0l-0.3-0.9v-0.1l-0.1,0c-1.6,0.6-3.1,1.3-4.6,2l0,0L154.7,33.7
			L154.7,33.7z"/>
		<path class="st0" d="M89,85.3c-0.9,1.5-1.7,3-2.4,4.4l0,0l0.9,0.5l0,0c0.7-1.5,1.5-2.9,2.4-4.4l0,0L89,85.3L89,85.3z"/>
		<path class="st0" d="M184.5,21.8c-1.6,0.5-3.2,1-4.8,1.5l-0.1,0l0.3,1l0,0c1.6-0.5,3.2-1,4.8-1.5l0,0L184.5,21.8L184.5,21.8z"/>
		<path class="st0" d="M93.9,77.8c-1,1.3-1.9,2.7-2.8,4.1l0,0l0.8,0.5l0,0c0.9-1.4,1.8-2.8,2.8-4.1l0,0L93.9,77.8L93.9,77.8z"/>
		<path class="st0" d="M193.1,19.3c-1.7,0.5-3.3,0.9-4.8,1.3l0,0l0.3,1l0,0c1.5-0.4,3-0.9,4.8-1.3l0.1,0L193.1,19.3L193.1,19.3z"/>
		<path class="st0" d="M201.9,17L201.9,17L201.9,17c-0.9,0.2-2,0.5-3.5,0.9c-0.5,0.1-0.9,0.2-1.4,0.4l0,0l0.2,1l1.4-0.4
			c1.5-0.4,2.7-0.7,3.5-0.9l0,0L201.9,17z"/>
		<path class="st0" d="M175.8,24.5c-1.5,0.5-3.1,1-4.7,1.6l0,0l0.3,0.9l0,0c1.6-0.6,3.2-1.1,4.7-1.6l0,0L175.8,24.5L175.8,24.5z"/>
	</g>
	<g id="XMLID_47_">
		<path id="XMLID_88_" class="st1" d="M238.2,41.2c1.9,0,3.5,1.6,3.5,3.5c0,2-1.5,3.5-3.5,3.5c-1.9,0-3.5-1.6-3.5-3.5
			C234.6,42.8,236.2,41.2,238.2,41.2L238.2,41.2z M238.1,41.9c-1.5,0-2.6,1.3-2.6,2.8c0,1.6,1.2,2.8,2.7,2.8c1.5,0,2.7-1.2,2.7-2.8
			C240.8,43.2,239.6,41.9,238.1,41.9L238.1,41.9z M237.5,46.7h-0.8v-3.9c0.3,0,0.7-0.1,1.2-0.1c0.7,0,1.1,0.1,1.3,0.3
			c0.2,0.2,0.3,0.4,0.3,0.8c0,0.5-0.3,0.8-0.7,0.9v0c0.3,0.1,0.6,0.4,0.6,0.9c0.1,0.6,0.2,0.8,0.2,1h-0.9c-0.1-0.1-0.2-0.5-0.2-1
			c-0.1-0.4-0.3-0.6-0.7-0.6h-0.4V46.7z M237.5,44.5h0.4c0.5,0,0.9-0.2,0.9-0.6c0-0.3-0.2-0.6-0.8-0.6c-0.2,0-0.3,0-0.5,0V44.5z"/>
		<g id="XMLID_73_">
			<path id="XMLID_85_" class="st1" d="M64.6,82.5V41.8h5l0.5,1.8c1-1.5,2.4-2.3,4.5-2.3c3.7,0,6,2.6,6,7.9v15.6
				c0,6.1-3,9.2-6.7,9.2c-0.9,0-1.9-0.3-2.8-0.7v9H64.6z M74.2,65V49.9c0-1.7-0.4-2.5-1.1-2.5c-0.8,0-1.4,0.3-2,1v19.9
				c0.4,0.1,0.7,0.1,1,0.1C73.5,68.4,74.2,67.2,74.2,65z"/>
			<path id="XMLID_82_" class="st1" d="M89.6,50.4v1.4h-6.1v-2c0-5.7,2.5-8.6,7.5-8.6c4.7,0,7.7,2.9,7.7,8.7v23.6h-5.1L93.3,72
				c-1.3,1.3-2.7,2-4.2,2c-3.7,0-5.8-2.2-5.8-6.8v-6.2c0-4.8,2.3-7.2,5.9-7.2c1.2,0,2.1,0.3,3,0.9v-4.3c0-2.8-0.5-3.3-1.2-3.3
				C90.1,47.1,89.6,47.6,89.6,50.4z M89.4,61.5V66c0,1.4,0.3,2,0.7,2c0.7,0,1.4-0.3,2-0.8v-7.9c-0.3-0.3-0.9-0.5-1.5-0.5
				C89.9,58.8,89.4,59.7,89.4,61.5z"/>
			<path id="XMLID_79_" class="st1" d="M101.1,82.5V41.8h4.9l0.5,1.8c0.9-1.5,2.4-2.3,4.5-2.3c3.7,0,6,2.6,6,7.9v15.6
				c0,6.1-3.1,9.2-6.7,9.2c-1,0-1.9-0.3-2.8-0.7v9H101.1z M110.6,65V49.9c0-1.7-0.4-2.5-1.1-2.5c-0.8,0-1.4,0.3-2,1v19.9
				c0.4,0.1,0.7,0.1,1,0.1C110,68.4,110.6,67.2,110.6,65z"/>
			<path id="XMLID_76_" class="st1" d="M126.2,59.7V65c0,2.7,0.5,3.2,1.3,3.2c0.7,0,1.3-0.5,1.3-3.2v-2.7h6.5v3.2
				c0,5.7-3.1,8.6-7.8,8.6c-4.7,0-7.8-2.8-7.8-8.6V49.9c0-5.8,3-8.7,7.7-8.7c4.8,0,7.9,2.9,7.9,8.6v9.9H126.2z M126.2,50.4v3.9h2.6
				v-3.9c0-2.8-0.5-3.3-1.4-3.3C126.6,47.1,126.2,47.6,126.2,50.4z"/>
			<path id="XMLID_74_" class="st1" d="M148.7,48.6c-0.7-0.9-1.6-1.3-2.4-1.3c-0.6,0-1.2,0.3-1.6,1v25.2h-6.5V41.9l5.4-0.9l0.3,1.8
				c0.9-1,2-1.5,3.1-1.5c1.2,0,2.2,0.3,3,0.8L148.7,48.6z"/>
		</g>
		<g id="XMLID_58_">
			<path id="XMLID_70_" class="st1" d="M152.8,82.7V42.1h5l0.5,1.8c1-1.5,2.4-2.3,4.5-2.3c3.7,0,6,2.6,6,7.9v15.6
				c0,6.1-3.1,9.2-6.7,9.2c-0.9,0-1.9-0.3-2.8-0.7v9H152.8z M162.4,65.2V50.1c0-1.7-0.4-2.5-1.1-2.5c-0.8,0-1.4,0.3-2,1v19.9
				c0.4,0.1,0.7,0.1,1,0.1C161.7,68.6,162.4,67.4,162.4,65.2z"/>
			<g id="XMLID_59_">
				<path id="XMLID_68_" class="st1" d="M171.8,73.5V34.3h6.4v39.3H171.8z"/>
				<path id="XMLID_65_" class="st1" d="M187.2,50.4v1.4h-6.1v-2c0-5.7,2.5-8.6,7.5-8.6c4.7,0,7.7,2.9,7.7,8.7v23.6h-5.1l-0.3-1.5
					c-1.3,1.3-2.7,2-4.2,2c-3.7,0-5.8-2.2-5.8-6.8v-6.2c0-4.8,2.3-7.2,5.9-7.2c1.2,0,2.1,0.3,3,0.9v-4.3c0-2.8-0.5-3.3-1.2-3.3
					C187.8,47.2,187.2,47.6,187.2,50.4z M187,61.5V66c0,1.4,0.3,2,0.7,2c0.7,0,1.4-0.3,2-0.8v-7.9c-0.3-0.3-0.9-0.5-1.5-0.5
					C187.6,58.8,187,59.8,187,61.5z"/>
				<path id="XMLID_63_" class="st1" d="M208.7,73.5V49.7c0-1.7-0.4-2.6-1.1-2.6c-0.7,0-1.4,0.5-2,1.4v25h-6.5V42l5.5-0.9l0.1,2.1
					c1.1-1.1,2.6-1.8,4.7-1.8c3.5,0,5.6,2.2,5.6,7.9v24.2H208.7z"/>
				<path id="XMLID_60_" class="st1" d="M224.7,59.8v5.3c0,2.7,0.5,3.2,1.3,3.2c0.7,0,1.3-0.5,1.3-3.2v-2.7h6.5v3.2
					c0,5.7-3.1,8.6-7.8,8.6c-4.7,0-7.8-2.8-7.8-8.6V49.9c0-5.8,3-8.7,7.7-8.7c4.8,0,7.9,2.9,7.9,8.6v9.9H224.7z M224.7,50.4v3.9h2.6
					v-3.9c0-2.8-0.5-3.3-1.4-3.3C225.1,47.2,224.7,47.6,224.7,50.4z"/>
			</g>
		</g>
		<g id="XMLID_48_">
			<path id="XMLID_56_" class="st2" d="M23.4,48.6c-0.7-0.9-1.6-1.3-2.4-1.3c-0.6,0-1.2,0.3-1.6,1v25.2h-6.5V41.9l5.4-0.9l0.3,1.8
				c0.9-1,2-1.5,3.1-1.5c1.2,0,2.2,0.3,3,0.8L23.4,48.6z"/>
			<g id="XMLID_49_">
				<path id="XMLID_53_" class="st2" d="M32.5,59.7V65c0,2.7,0.5,3.2,1.3,3.2c0.7,0,1.3-0.5,1.3-3.2v-2.7h6.5v3.2
					c0,5.7-3,8.6-7.8,8.6c-4.7,0-7.8-2.8-7.8-8.6V49.9c0-5.8,3-8.7,7.7-8.7c4.8,0,7.9,2.9,7.9,8.6v9.9H32.5z M32.5,50.4v3.9h2.6
					v-3.9c0-2.8-0.5-3.3-1.4-3.3C32.9,47.1,32.5,47.6,32.5,50.4z"/>
				<path id="XMLID_50_" class="st2" d="M60.6,73.5h-5.1l-0.3-1.8C53.8,73.2,52.1,74,50,74c-3.7,0-5.4-2-5.4-7.9V50.7
					c0-6.1,2.6-9.2,6.6-9.2c1.2,0,2.1,0.2,2.9,0.7V28.8h6.5V73.5z M51,50.7v14.8c0,1.6,0.3,2.5,1.1,2.5c0.7,0,1.4-0.3,2-1V47.5
					c-0.3-0.2-0.7-0.3-1-0.3C51.7,47.2,51,48.4,51,50.7z"/>
			</g>
		</g>
	</g>
	<g>
		<path class="st0" d="M46,94.4c0-1.3,0-1.5-0.7-1.9l-0.2-0.1C45,92.4,45,92,45.1,92c0.5-0.2,1.6-0.5,2.5-0.9c0.1,0,0.2,0,0.2,0.1
			c0,0.8-0.1,1.8-0.1,2.8v4.3c0,0.4,0.1,0.5,0.2,0.5c0.6-0.3,1.5-0.7,2.6-0.7c2.6,0,4.3,1.9,4.3,4.4c0,3-2.2,5.1-5.2,5.1
			c-0.8,0-1.5-0.1-1.9-0.3c-0.5-0.1-0.8-0.3-0.9-0.3c-0.2,0-0.4,0.2-0.5,0.3c0,0,0,0-0.1,0c-0.1,0-0.2,0-0.2-0.1c0-0.3,0-0.7,0-1.9
			V94.4z M47.7,104.1c0,0.8,0.2,1.5,0.6,2c0.4,0.5,1,0.7,1.7,0.7c2.1,0,2.9-1.8,2.9-3.7c0-2.3-1.2-4.1-3.4-4.1
			c-0.7,0-1.2,0.2-1.5,0.4c-0.2,0.2-0.3,0.4-0.3,1.3V104.1z"/>
		<path class="st0" d="M56,111.8c0-0.6,0.4-0.9,0.9-0.9h0.4c0.4,0,0.6-0.2,0.7-0.4c0.7-1,1.1-2,1.3-2.5c0.1-0.2,0.2-0.7,0.2-1
			c0-0.4-0.1-0.7-0.4-1.6l-1.8-4.8c-0.4-1.1-0.5-1.6-1.3-1.8l-0.6-0.1c-0.1-0.1-0.1-0.5,0.1-0.6c0.7,0,1.4,0.1,2.1,0.1
			c0.6,0,1.2,0,2-0.1c0.2,0.1,0.2,0.4,0,0.6l-0.6,0.1c-0.3,0.1-0.5,0.1-0.5,0.3c0,0.3,0.5,1.7,0.7,2.1l0.7,2.1
			c0.1,0.4,0.6,1.6,0.7,1.6c0.1,0,0.4-0.7,0.8-1.7l0.8-1.8c0.5-1.2,0.8-2,0.8-2.3c0-0.2-0.1-0.3-0.5-0.4l-0.7-0.1
			c-0.2-0.1-0.1-0.5,0-0.6c0.7,0,1.4,0.1,2,0.1c0.6,0,1.1,0,1.7-0.1c0.2,0.1,0.2,0.4,0,0.6l-0.4,0.1c-0.7,0.1-1.1,0.8-1.9,2.4
			l-1.3,2.6c-0.7,1.5-2.6,5.4-3.7,7.9c-0.4,0.9-0.9,1.1-1.4,1.1C56.4,112.7,56,112.3,56,111.8z"/>
		<path class="st0" d="M72.7,105.9c-0.1-0.8,0.1-1.9,0.4-2.6c0.1-0.1,0.4-0.1,0.5,0c0.2,2,1.1,3.4,3.3,3.4c1.4,0,3.3-0.9,3.3-3.2
			c0-1.7-1.1-2.6-2.3-3.5c-1.2-0.9-2.3-2.3-2.3-3.9c0-2.5,1.9-4.3,4.9-4.3c1.5,0,2.8,0.6,3.3,0.9c-0.3,0.6-0.6,1.8-0.8,2.6
			c-0.2,0.1-0.5,0.1-0.6,0c0.3-1.5-0.1-2.8-2.1-2.8c-2,0-3,1.3-3,2.9c0,1.5,1.4,2.6,2.2,3.2c1.4,1.1,2.4,2.3,2.4,4.1
			c0,2.7-2,4.7-5.2,4.7C75,107.5,73.4,107,72.7,105.9z"/>
		<path class="st0" d="M87.1,99.3l-2,5.9c-0.1,0.4,0,0.6,0.2,0.6c0.3,0,1.8-1.2,2.6-2c0.2,0,0.4,0.1,0.3,0.4
			c-1.3,1.9-3.4,3.2-4.3,3.2c-0.3,0-0.6-0.3-0.6-0.6c0-0.3,0.1-0.6,0.3-1.3l2.1-6.2h-1.8c0-0.2,0-0.5,0.2-0.6l1.8-0.3l1.3-2.2
			c0.2-0.1,0.7-0.1,0.9,0.1l-0.7,2.2h2.5c0.2,0.2,0,0.7-0.3,0.8H87.1z"/>
		<path class="st0" d="M93.1,100.1l-1,2.8h0.1c0.7-1.3,1.8-3.1,2.4-3.8c0.5-0.7,1.1-1.2,1.6-1.2c0.8,0,0.9,0.8,0.9,1.1
			c0,0.3-0.2,1-0.5,1.4c-0.3,0.3-0.6,0.4-0.7-0.1c-0.1-0.6-0.2-0.9-0.5-0.9c-0.2,0-0.4,0.2-0.8,0.7c-1.4,1.8-2.6,4.5-3.8,7.1
			c-0.1,0.2-0.2,0.3-0.4,0.3c-0.2,0-0.9-0.1-0.7-0.6c0.3-0.9,1.7-4.9,2.3-7.1c0.1-0.2,0-0.5-0.2-0.5c-0.6,0-1.2,0.6-1.6,1.2
			c-0.2,0-0.4-0.1-0.4-0.4c0.7-1.2,1.6-2.2,2.7-2.2C93.7,97.9,93.3,99.5,93.1,100.1z"/>
		<path class="st0" d="M99.5,105.2c-0.2,0.5-0.1,0.8,0.2,0.8c0.3,0,1.2-0.7,2.4-1.9c2-2,3.2-4.6,4-6c0.5-0.1,1,0.1,1.1,0.4
			c-0.2,0.6-1.7,4.3-2.6,7c-0.1,0.3-0.1,0.6,0.1,0.6c0.4,0,1.6-1.1,2.2-1.8c0.2,0,0.4,0,0.4,0.3c-0.6,1.1-2.7,2.9-3.9,2.9
			c-0.4,0-0.7-0.4-0.6-0.8l1.5-4.1l0,0c-1.6,2-4.4,4.9-5.6,4.9c-0.9,0-1-0.9-0.7-1.9l2.1-5.5c0.2-0.4,0.2-0.7,0-0.7
			c-0.4,0-1.6,1-2.1,1.6c-0.2,0-0.4-0.1-0.4-0.3c0.6-0.9,2.8-2.7,3.9-2.7c0.3,0,0.8,0.3,0.7,0.7L99.5,105.2z"/>
		<path class="st0" d="M115.8,99.3c0,0.9-0.9,1.1-1.1,1.1c-0.2,0-0.4-0.1-0.4-0.4c-0.1-0.6,0-1.2-0.8-1.2c-0.5,0-1.2,0.5-1.9,1.5
			c-0.7,1.1-1.4,2.9-1.5,4.7c0,1.1,0.4,1.5,1,1.5c0.7,0,1.6-0.6,2.4-1.4c0.2,0,0.4,0.2,0.3,0.4c-0.9,1.1-2.3,2.1-3.7,2.1
			c-0.9,0-1.7-0.7-1.7-2.4c0-1.5,0.9-4,2.9-5.8c0.9-0.9,1.9-1.3,2.9-1.3C115.3,97.9,115.8,98.6,115.8,99.3z"/>
		<path class="st0" d="M120.1,99.3l-2,5.9c-0.1,0.4,0,0.6,0.2,0.6c0.3,0,1.8-1.2,2.6-2c0.2,0,0.4,0.1,0.3,0.4
			c-1.3,1.9-3.4,3.2-4.3,3.2c-0.3,0-0.6-0.3-0.6-0.6c0-0.3,0.1-0.6,0.3-1.3l2.1-6.2h-1.8c0-0.2,0-0.5,0.2-0.6l1.8-0.3l1.3-2.2
			c0.2-0.1,0.7-0.1,0.9,0.1l-0.7,2.2h2.5c0.2,0.2,0,0.7-0.3,0.8H120.1z"/>
		<path class="st0" d="M124.7,105.2c-0.2,0.5-0.1,0.8,0.2,0.8c0.3,0,1.2-0.7,2.4-1.9c2-2,3.2-4.6,4-6c0.5-0.1,1,0.1,1.1,0.4
			c-0.2,0.6-1.7,4.3-2.6,7c-0.1,0.3-0.1,0.6,0.1,0.6c0.4,0,1.6-1.1,2.2-1.8c0.2,0,0.4,0,0.4,0.3c-0.6,1.1-2.7,2.9-3.9,2.9
			c-0.4,0-0.7-0.4-0.6-0.8l1.5-4.1l0,0c-1.6,2-4.4,4.9-5.6,4.9c-0.9,0-1-0.9-0.7-1.9l2.1-5.5c0.2-0.4,0.2-0.7,0-0.7
			c-0.4,0-1.6,1-2.1,1.6c-0.2,0-0.4-0.1-0.4-0.3c0.6-0.9,2.8-2.7,3.9-2.7c0.3,0,0.8,0.3,0.7,0.7L124.7,105.2z"/>
		<path class="st0" d="M137.3,100.1l-1,2.8h0.1c0.7-1.3,1.8-3.1,2.4-3.8c0.5-0.7,1.1-1.2,1.6-1.2c0.8,0,0.9,0.8,0.9,1.1
			c0,0.3-0.2,1-0.5,1.4c-0.3,0.3-0.6,0.4-0.7-0.1c-0.1-0.6-0.2-0.9-0.5-0.9c-0.2,0-0.4,0.2-0.8,0.7c-1.4,1.8-2.6,4.5-3.8,7.1
			c-0.1,0.2-0.2,0.3-0.4,0.3c-0.2,0-0.9-0.1-0.7-0.6c0.3-0.9,1.7-4.9,2.3-7.1c0.1-0.2,0-0.5-0.2-0.5c-0.6,0-1.2,0.6-1.6,1.2
			c-0.2,0-0.4-0.1-0.4-0.4c0.7-1.2,1.6-2.2,2.7-2.2C137.9,97.9,137.5,99.5,137.3,100.1z"/>
		<path class="st0" d="M148.6,97.4c0.4-0.2,1,0,1.1,0.3c-0.3,0.8-2.3,5.8-3,7.9c-0.1,0.4,0,0.5,0.2,0.5c0.4,0,1-0.4,2.3-1.5
			c0.2,0,0.3,0.1,0.3,0.3c-0.9,1.3-2.5,2.5-3.8,2.5c-0.5,0-0.7-0.4-0.7-0.6c0-0.2,0-0.4,0.2-0.9l0.7-2l-0.1,0c-1.6,2-3.9,3.5-5,3.5
			c-0.6,0-1-0.6-1-1.3c0-0.5,0.5-2.3,2-4.4c1.1-1.5,2-2.4,3-2.9c0.9-0.5,1.4-0.7,2-0.7c0.2,0,0.4,0.1,0.5,0.1c0.1,0,0.3,0.2,0.5,0.5
			L148.6,97.4z M144.7,100c-1.4,1.3-2.8,4.2-2.8,5.8c0,0.3,0.1,0.4,0.3,0.4c0.2,0,0.9-0.3,2.2-1.5c1.7-1.6,2.7-3.5,3-4.9
			c-0.2-0.4-0.5-0.8-1.1-0.8C145.7,99.1,145.4,99.4,144.7,100z"/>
		<path class="st0" d="M152.3,105.7c-0.2,0.5-0.2,0.7,0.1,0.7c0.5,0,1.6-1.1,2.6-2.3c0.2,0,0.4,0.1,0.4,0.3c-0.6,1.1-2,3-3.9,3
			c-0.7,0-0.9-0.3-0.9-0.7c0-0.4,0.1-0.8,0.5-1.9l3.6-10.6c0.5-1.6,0.3-1.8,0-2l-0.4-0.2c-0.1-0.1-0.1-0.3,0-0.4
			c0.4-0.2,1.8-0.6,2.8-0.7l0.1,0.1c-0.3,0.8-0.5,1.4-1.3,3.9L152.3,105.7z"/>
		<path class="st0" d="M172.9,103.3c0.5-1.6,0.5-2-0.8-2.1l-0.9-0.1c-0.2-0.1-0.1-0.5,0-0.6c1,0,1.8,0.1,2.7,0.1c1,0,2,0,2.6-0.1
			c0.2,0.1,0.2,0.5,0,0.6l-0.4,0.1c-0.9,0.2-1,0.3-1.5,2.1l-0.7,2.2c-0.1,0.3,0,0.5,0.2,0.7c0,0.1,0,0.2-0.1,0.3
			c-1.6,0.5-3.5,1-4.7,1c-4,0-6.3-2.2-6.3-5.9c0-2.2,0.9-4.9,3.2-6.9c2.2-1.9,4.7-2.8,7.8-2.8c1.9,0,3.3,0.5,3.8,0.7
			c-0.4,0.8-0.8,2.1-1.1,3c-0.1,0.2-0.5,0.2-0.6,0c0.4-2.1-0.3-3-2.5-3c-2.7,0-4.4,1-5.9,2.4c-1.6,1.5-2.9,4.5-2.9,7.1
			c0,3.6,2.2,4.7,4.5,4.7c1.6,0,2.5-0.2,2.9-1.7L172.9,103.3z"/>
		<path class="st0" d="M180.9,100.1l-1,2.8h0.1c0.7-1.3,1.8-3.1,2.4-3.8c0.5-0.7,1.1-1.2,1.6-1.2c0.8,0,0.9,0.8,0.9,1.1
			c0,0.3-0.2,1-0.5,1.4c-0.3,0.3-0.6,0.4-0.7-0.1c-0.1-0.6-0.2-0.9-0.5-0.9c-0.2,0-0.5,0.2-0.8,0.7c-1.4,1.8-2.6,4.5-3.8,7.1
			c-0.1,0.2-0.2,0.3-0.4,0.3c-0.2,0-0.9-0.1-0.7-0.6c0.3-0.9,1.7-4.9,2.3-7.1c0.1-0.2,0-0.5-0.2-0.5c-0.6,0-1.2,0.6-1.6,1.2
			c-0.2,0-0.4-0.1-0.4-0.4c0.7-1.2,1.6-2.2,2.7-2.2C181.5,97.9,181.1,99.5,180.9,100.1z"/>
		<path class="st0" d="M192.2,97.4c0.4-0.2,1,0,1.1,0.3c-0.3,0.8-2.3,5.8-3,7.9c-0.1,0.4,0,0.5,0.2,0.5c0.4,0,1-0.4,2.3-1.5
			c0.2,0,0.3,0.1,0.3,0.3c-0.9,1.3-2.5,2.5-3.8,2.5c-0.5,0-0.7-0.4-0.7-0.6c0-0.2,0-0.4,0.2-0.9l0.7-2l-0.1,0c-1.6,2-3.9,3.5-5,3.5
			c-0.6,0-1-0.6-1-1.3c0-0.5,0.5-2.3,2-4.4c1.1-1.5,2-2.4,3-2.9c0.9-0.5,1.4-0.7,2-0.7c0.2,0,0.4,0.1,0.5,0.1c0.1,0,0.3,0.2,0.4,0.5
			L192.2,97.4z M188.2,100c-1.4,1.3-2.8,4.2-2.8,5.8c0,0.3,0.1,0.4,0.3,0.4c0.2,0,0.9-0.3,2.2-1.5c1.7-1.6,2.7-3.5,3-4.9
			c-0.2-0.4-0.5-0.8-1.1-0.8C189.3,99.1,188.9,99.4,188.2,100z"/>
		<path class="st0" d="M199,98.3c0.2,0,0.4,0,0.9,0c1,0,3.1,0.4,3.1,2.6c0,2.1-1.3,3.9-3,5.3c-1.4,1.2-3.1,1.3-3.2,1.3
			c-0.2,0-0.4,0-0.7-0.1c-0.2,0-0.3,0.2-0.4,0.4l-0.9,2.7c-0.6,1.7-0.6,1.9,0.2,2l0.9,0.1c0.1,0.2,0.1,0.4-0.1,0.5
			c-1.7,0-3.4,0.1-4.9,0.1c-0.2-0.1-0.2-0.4,0-0.5l0.5-0.1c1.3-0.2,1.4-0.7,1.7-1.7l4.2-11.8c-0.8,0.2-1.3,0.5-2.3,0.9
			c-0.2,0-0.3-0.2-0.2-0.4c0.8-0.6,1.7-0.9,2.8-1.2l0.7-1.8c0.3-0.2,1.2,0,1.3,0.3L199,98.3z M196.5,105.6c-0.1,0.2-0.1,0.5,0,0.6
			c0.1,0.2,0.5,0.5,0.8,0.5c0.3,0,1.6-0.3,2.5-1.8c1.1-1.7,1.3-3.2,1.3-4.2c0-1.1-0.8-1.7-1.8-1.7c-0.2,0-0.4,0-0.6,0L196.5,105.6z"
			/>
		<path class="st0" d="M208.2,94.2c0.5-1.5,0.6-1.8,0.2-2l-0.5-0.3c0-0.1,0-0.2,0.1-0.3c0.4-0.2,1.8-0.5,2.6-0.5l0.1,0.1
			c-0.4,1.3-1.2,3.3-1.6,4.6l-2.3,6.8v0l0,0c1.6-2.2,2.7-3.1,3.6-3.7c0.8-0.6,1.5-0.9,2.1-0.9c1,0,1.4,0.7,1.4,1.5
			c0,1.6-1,3.8-1.8,5.3c-0.4,0.8-0.9,1.3-1.5,1.8c-0.7,0.7-1.4,0.9-1.6,0.9c-0.7,0-0.8-0.5-0.8-0.7c0-0.4,0.3-0.7,0.6-0.7
			c0.1,0,0.2,0,0.3,0.1c0.2,0.1,0.4,0.3,0.6,0.3c0.3,0,0.6-0.3,0.9-1.1c0.6-1.5,1.6-4.6,1.6-5.8c0-0.4-0.2-0.7-0.5-0.7
			c-0.3,0-0.8,0.3-1.2,0.6c-0.9,0.7-1.7,1.5-2.9,3c-1,1.4-2.1,3.5-2.7,4.7c-0.1,0.2-0.2,0.3-0.4,0.3c-0.2,0-0.9-0.1-0.7-0.6
			L208.2,94.2z"/>
		<path class="st0" d="M217.9,99.8c0.1-0.2,0.1-0.4,0-0.4s-0.7,0.3-1.9,1.2c-0.2,0-0.3-0.2-0.3-0.4c1.2-1.4,3-2.3,3.7-2.3
			c0.2,0,0.3,0.1,0.4,0.2c0.1,0.1,0.1,0.3-0.1,1l-2.7,6.4c-0.1,0.2-0.1,0.5,0.1,0.5c0.4,0,1.6-0.8,2.3-1.7c0.2,0,0.3,0.2,0.3,0.4
			c-0.3,0.7-2.7,2.7-4.2,2.7c-0.1,0-0.2-0.1-0.4-0.2c-0.1-0.2-0.2-0.4-0.1-0.6L217.9,99.8z M220.8,93.4c0,0.7-0.5,1.4-1.2,1.4
			c-0.6,0-0.8-0.4-0.8-0.9c0-0.5,0.3-1.4,1.2-1.4C220.5,92.5,220.8,92.9,220.8,93.4z"/>
		<path class="st0" d="M228.6,99.3c0,0.9-0.9,1.1-1.1,1.1c-0.2,0-0.4-0.1-0.5-0.4c-0.1-0.6,0-1.2-0.8-1.2c-0.5,0-1.2,0.5-1.9,1.5
			c-0.7,1.1-1.4,2.9-1.5,4.7c0,1.1,0.4,1.5,1,1.5c0.7,0,1.6-0.6,2.4-1.4c0.2,0,0.4,0.2,0.3,0.4c-0.9,1.1-2.3,2.1-3.7,2.1
			c-0.9,0-1.7-0.7-1.7-2.4c0-1.5,0.9-4,2.9-5.8c0.9-0.9,1.9-1.3,2.9-1.3C228.1,97.9,228.6,98.6,228.6,99.3z"/>
		<path class="st0" d="M234.2,99.2c0,0.4-0.2,0.6-0.4,0.7c-0.2,0-0.3,0-0.4-0.2c-0.4-0.4-0.7-0.7-1.4-0.7c-0.7,0-0.9,0.6-0.9,0.9
			c0,0.5,0.1,0.9,0.8,2c0.6,0.9,0.9,1.5,0.9,2.5c0,0.6-0.3,1.4-1.2,2.2c-0.6,0.5-1.4,0.8-2.3,0.8c-0.9,0-1.4-0.7-1.4-1.2
			c0-0.2,0.1-0.5,0.3-0.7c0.2-0.2,0.4-0.2,0.6,0c0.3,0.3,1,0.9,1.6,0.9c0.5,0,1.1-0.6,1.1-1.3c0-0.4-0.3-1.1-0.8-2
			c-0.6-0.9-0.8-1.7-0.8-2.1c0-0.9,0.4-1.5,1.4-2.4c0.7-0.6,1.4-0.7,1.7-0.7C233.6,97.9,234.2,98.7,234.2,99.2z"/>
	</g>
</g>
</svg>
