<?xml version="1.0" encoding="utf-8"?>
<!-- Generator: Adobe Illustrator 22.0.1, SVG Export Plug-In . SVG Version: 6.00 Build 0)  -->
<svg version="1.1" id="Layer_1" xmlns="http://www.w3.org/2000/svg" xmlns:xlink="http://www.w3.org/1999/xlink" x="0px" y="0px"
	 viewBox="0 0 150 178.7" style="enable-background:new 0 0 150 178.7;" xml:space="preserve">
<style type="text/css">
	.st0{fill:#005589;}
	.st1{fill:#75BEE9;}
	.st2{fill:#ED1C24;}
</style>
<g>
	<g>
		<path class="st0" d="M18.5,62.1c0.8-1.4,1.7-2.9,2.6-4.2l0,0l-0.8-0.5l0,0c-0.9,1.4-1.8,2.8-2.6,4.3l0,0L18.5,62.1L18.5,62.1z"/>
		<path class="st0" d="M9.5,105.2L9.5,105.2c-0.2-1.7-0.4-3.4-0.5-5v-0.1l-1,0.1v0.1c0.1,1.6,0.3,3.3,0.5,5v0L9.5,105.2z"/>
		<path class="st0" d="M23.4,54.6c1-1.3,2.1-2.6,3.1-3.8l0,0l-0.8-0.7l0,0c-1.1,1.3-2.2,2.6-3.2,3.9l0,0L23.4,54.6L23.4,54.6z"/>
		<path class="st0" d="M8.9,96.2C9,95.2,9,94.1,9.2,93c0.1-0.5,0.1-1.1,0.2-1.7v0l-1-0.1v0c-0.1,0.5-0.1,1.1-0.2,1.8
			C8,94,8,95.1,7.9,96.2v0L8.9,96.2L8.9,96.2z"/>
		<path class="st0" d="M9.9,87.4c0.3-1.6,0.6-3.3,0.9-4.9l0-0.1l-1-0.2l0,0.1c-0.4,1.6-0.7,3.2-1,4.9l0,0.1L9.9,87.4L9.9,87.4z"/>
		<path class="st0" d="M11.8,78.6c0.4-1.6,0.9-3.2,1.4-4.8l0,0l-1-0.3l0,0c-0.5,1.6-1,3.2-1.5,4.8l0,0L11.8,78.6L11.8,78.6z"/>
		<path class="st0" d="M67.8,26.2c1.5-0.5,3.2-1,4.8-1.4l0,0l-0.3-1l0,0c-1.6,0.5-3.3,0.9-4.8,1.4l-0.1,0L67.8,26.2L67.8,26.2z"/>
		<path class="st0" d="M29.2,47.9c1.1-1.1,2.4-2.3,3.6-3.4l0,0l-0.7-0.8l0,0c-1.3,1.1-2.5,2.2-3.7,3.4l0,0L29.2,47.9L29.2,47.9z"/>
		<path class="st0" d="M85.2,21.8c1.6-0.3,3.2-0.6,4.9-0.9l0,0L90,19.9l-0.1,0c-1.7,0.3-3.4,0.6-4.9,0.9l-0.1,0L85.2,21.8L85.2,21.8
			z"/>
		<path class="st0" d="M48,155.5L48,155.5l-0.4,0.9l0,0c1.6,0.6,3.2,1.1,4.8,1.5l0.1,0l0.3-1l-0.1,0C51.1,156.6,49.5,156.1,48,155.5
			z"/>
		<path class="st0" d="M39.9,151.8L39.9,151.8L39.9,151.8l-0.5,0.8l0,0.1c1.4,0.8,3,1.6,4.5,2.3l0.1,0l0.4-0.9l0,0
			C42.8,153.3,41.3,152.6,39.9,151.8z"/>
		<path class="st0" d="M32.6,146.8L32.6,146.8l-0.6,0.7l0,0l0,0c1.3,1,2.6,2,4.1,3l0,0l0.5-0.8l0,0
			C35.2,148.8,33.8,147.8,32.6,146.8z"/>
		<path class="st0" d="M56.5,158L56.5,158l-0.2,1l0,0c1.6,0.3,3.3,0.6,5,0.8h0l0.1-1l0,0C59.8,158.6,58.1,158.3,56.5,158z"/>
		<path class="st0" d="M16.7,65.6l-0.9-0.4l0,0.1c-0.7,1.5-1.4,3-2,4.6l0,0l0.9,0.4l0-0.1C15.2,68.6,15.9,67.1,16.7,65.6L16.7,65.6z
			"/>
		<path class="st0" d="M10.2,109L10.2,109l-1,0.2l0,0c0.3,1.6,0.8,3.3,1.2,4.9l0,0.1l1-0.3l0,0C11,112.3,10.6,110.7,10.2,109z"/>
		<path class="st0" d="M12.6,117.7L12.6,117.7L12.6,117.7L12.6,117.7l-0.9,0.3l0,0.1c0.6,1.6,1.2,3.1,1.8,4.7l0,0l0.9-0.4l0,0
			C13.8,120.8,13.2,119.2,12.6,117.7z"/>
		<path class="st0" d="M16.1,125.9L16.1,125.9l-0.9,0.4l0,0c0.8,1.5,1.5,3,2.4,4.4l0,0l0.9-0.5l0,0
			C17.6,128.8,16.8,127.4,16.1,125.9z"/>
		<path class="st0" d="M26.1,140.6L26.1,140.6l-0.8,0.6l0,0c1.1,1.2,2.3,2.5,3.5,3.6l0,0l0.7-0.7l0,0
			C28.4,143,27.2,141.9,26.1,140.6z"/>
		<path class="st0" d="M20.6,133.6L20.6,133.6L20.6,133.6l-0.9,0.5l0,0c0.9,1.4,1.9,2.8,3,4.1l0,0l0.8-0.6l0,0
			C22.5,136.3,21.5,135,20.6,133.6z"/>
	</g>
	<g>
		<path class="st1" d="M112.5,101.1c1.1,0,2.1,0.9,2.1,2.1c0,1.2-0.9,2.1-2.1,2.1c-1.1,0-2.1-0.9-2.1-2.1
			C110.4,102.1,111.3,101.1,112.5,101.1L112.5,101.1z M112.4,101.6c-0.9,0-1.6,0.7-1.6,1.7c0,0.9,0.7,1.7,1.6,1.7
			c0.9,0,1.6-0.7,1.6-1.7C114,102.3,113.3,101.6,112.4,101.6L112.4,101.6z M112.1,104.4h-0.5v-2.3c0.2,0,0.4-0.1,0.7-0.1
			c0.4,0,0.6,0.1,0.8,0.2c0.1,0.1,0.2,0.3,0.2,0.5c0,0.3-0.2,0.5-0.4,0.5v0c0.2,0,0.3,0.2,0.4,0.6c0,0.4,0.1,0.5,0.1,0.6h-0.5
			c-0.1-0.1-0.1-0.3-0.1-0.6c0-0.2-0.2-0.4-0.4-0.4h-0.2V104.4z M112.1,103.1h0.2c0.3,0,0.5-0.1,0.5-0.3c0-0.2-0.1-0.3-0.5-0.3
			c-0.1,0-0.2,0-0.3,0V103.1z"/>
		<g>
			<path class="st1" d="M40.8,96.5V62.3H45l0.4,1.5c0.8-1.3,2-1.9,3.8-1.9c3.1,0,5.1,2.2,5.1,6.7v13.1c0,5.1-2.6,7.8-5.6,7.8
				c-0.8,0-1.6-0.2-2.3-0.6v7.6H40.8z M48.9,81.8V69.1c0-1.4-0.3-2.1-0.9-2.1c-0.7,0-1.2,0.3-1.7,0.9v16.7c0.3,0.1,0.6,0.1,0.9,0.1
				C48.3,84.6,48.9,83.6,48.9,81.8z"/>
			<path class="st1" d="M61.8,69.5v1.2h-5.1V69c0-4.8,2.1-7.2,6.3-7.2c4,0,6.5,2.4,6.5,7.3V89h-4.3L65,87.7
				c-1.1,1.1-2.3,1.7-3.5,1.7c-3.1,0-4.9-1.9-4.9-5.8v-5.3c0-4.1,1.9-6.1,5-6.1c1,0,1.8,0.3,2.5,0.8v-3.6c0-2.3-0.5-2.7-1-2.7
				C62.3,66.8,61.8,67.2,61.8,69.5z M61.7,78.9v3.8c0,1.1,0.3,1.7,0.6,1.7c0.6,0,1.2-0.2,1.7-0.7V77c-0.3-0.2-0.8-0.4-1.3-0.4
				C62.1,76.6,61.7,77.4,61.7,78.9z"/>
			<path class="st1" d="M71.6,96.5V62.3h4.2l0.4,1.5c0.8-1.3,2-1.9,3.8-1.9c3.1,0,5.1,2.2,5.1,6.7v13.1c0,5.1-2.6,7.8-5.6,7.8
				c-0.8,0-1.6-0.2-2.3-0.6v7.6H71.6z M79.6,81.8V69.1c0-1.4-0.3-2.1-0.9-2.1c-0.7,0-1.2,0.3-1.7,0.9v16.7c0.3,0.1,0.6,0.1,0.9,0.1
				C79,84.6,79.6,83.6,79.6,81.8z"/>
			<path class="st1" d="M93.3,77.4v4.5c0,2.3,0.4,2.7,1.1,2.7c0.6,0,1.1-0.4,1.1-2.7v-2.3h5.5v2.7c0,4.8-2.6,7.2-6.6,7.2
				c-4,0-6.6-2.4-6.6-7.2V69.1c0-4.8,2.5-7.3,6.5-7.3c4.1,0,6.6,2.5,6.6,7.2v8.3H93.3z M93.3,69.5v3.3h2.2v-3.3
				c0-2.3-0.5-2.7-1.1-2.7C93.7,66.8,93.3,67.2,93.3,69.5z"/>
			<path class="st1" d="M112.3,68c-0.6-0.7-1.3-1.1-2.1-1.1c-0.5,0-1,0.3-1.4,0.9V89h-5.5V62.4l4.5-0.7l0.2,1.5
				c0.8-0.9,1.7-1.3,2.6-1.3c1,0,1.8,0.2,2.5,0.7L112.3,68z"/>
		</g>
		<g>
			<path class="st1" d="M40.8,137v-35.8H45l0.4,1.5c0.8-1.3,2-1.9,3.8-1.9c3.1,0,5.1,2.2,5.1,6.7v13.1c0,5.1-2.6,7.8-5.6,7.8
				c-0.8,0-1.6-0.2-2.3-0.6v9.2H40.8z M48.9,120.6V108c0-1.4-0.3-2.1-0.9-2.1c-0.7,0-1.2,0.3-1.7,0.9v16.7c0.3,0.1,0.6,0.1,0.9,0.1
				C48.3,123.5,48.9,122.5,48.9,120.6z"/>
			<g>
				<path class="st1" d="M56.8,127.7V94.6h5.4v33.1H56.8z"/>
				<path class="st1" d="M69.8,108.2v1.2h-5.1v-1.7c0-4.8,2.1-7.2,6.3-7.2c4,0,6.5,2.4,6.5,7.3v19.9h-4.3l-0.2-1.3
					c-1.1,1.1-2.3,1.7-3.5,1.7c-3.1,0-4.9-1.9-4.9-5.8v-5.2c0-4.1,1.9-6.1,5-6.1c1,0,1.8,0.3,2.5,0.8v-3.6c0-2.3-0.5-2.7-1-2.7
					C70.2,105.5,69.8,105.9,69.8,108.2z M69.6,117.6v3.8c0,1.1,0.3,1.7,0.6,1.7c0.6,0,1.2-0.2,1.7-0.7v-6.7
					c-0.3-0.2-0.8-0.4-1.3-0.4C70,115.3,69.6,116.1,69.6,117.6z"/>
				<path class="st1" d="M87.9,127.7v-20c0-1.4-0.3-2.2-0.9-2.2c-0.6,0-1.2,0.4-1.7,1.2v21h-5.5v-26.5l4.6-0.7l0.1,1.8
					c0.9-0.9,2.2-1.5,4-1.5c3,0,4.7,1.9,4.7,6.7v20.4H87.9z"/>
				<path class="st1" d="M101.3,116.1v4.5c0,2.3,0.4,2.7,1.1,2.7c0.6,0,1.1-0.4,1.1-2.7v-2.3h5.5v2.7c0,4.8-2.6,7.3-6.6,7.3
					c-4,0-6.6-2.4-6.6-7.3v-13.1c0-4.8,2.5-7.3,6.5-7.3c4.1,0,6.6,2.5,6.6,7.2v8.3H101.3z M101.3,108.2v3.3h2.2v-3.3
					c0-2.3-0.5-2.7-1.1-2.7C101.6,105.5,101.3,105.9,101.3,108.2z"/>
			</g>
		</g>
		<g>
			<path class="st2" d="M49.6,36.4c-0.6-0.7-1.3-1.1-2.1-1.1c-0.5,0-1,0.3-1.4,0.9v21.2h-5.5V30.8l4.5-0.7l0.2,1.5
				c0.8-0.9,1.7-1.3,2.6-1.3c1,0,1.8,0.2,2.5,0.7L49.6,36.4z"/>
			<g>
				<path class="st2" d="M57.3,45.8v4.5c0,2.3,0.4,2.7,1.1,2.7c0.6,0,1.1-0.4,1.1-2.7v-2.3H65v2.7c0,4.8-2.6,7.2-6.6,7.2
					c-4,0-6.6-2.4-6.6-7.2V37.5c0-4.9,2.5-7.3,6.5-7.3c4.1,0,6.6,2.5,6.6,7.2v8.3H57.3z M57.3,37.9v3.3h2.2v-3.3
					c0-2.3-0.5-2.7-1.1-2.7C57.7,35.2,57.3,35.6,57.3,37.9z"/>
				<path class="st2" d="M81,57.4h-4.3l-0.3-1.5c-1.1,1.3-2.6,1.9-4.4,1.9c-3.1,0-4.5-1.7-4.5-6.6v-13c0-5.1,2.2-7.8,5.5-7.8
					c1,0,1.8,0.2,2.5,0.6V19.7H81V57.4z M72.9,38.1v12.5c0,1.4,0.3,2.1,0.9,2.1c0.6,0,1.2-0.3,1.7-0.9V35.5
					c-0.3-0.2-0.6-0.3-0.9-0.3C73.5,35.2,72.9,36.2,72.9,38.1z"/>
			</g>
		</g>
	</g>
	<g>
		<path class="st0" d="M57.7,139.7c0-0.9,0-1-0.5-1.2l-0.1-0.1c-0.1,0-0.1-0.3,0-0.3c0.3-0.1,1.1-0.3,1.6-0.6c0.1,0,0.1,0,0.1,0.1
			c0,0.5-0.1,1.2-0.1,1.9v2.8c0,0.3,0.1,0.3,0.1,0.3c0.4-0.2,1-0.5,1.7-0.5c1.7,0,2.9,1.3,2.9,2.9c0,2-1.4,3.4-3.4,3.4
			c-0.6,0-1-0.1-1.3-0.2c-0.3-0.1-0.5-0.2-0.6-0.2c-0.1,0-0.2,0.1-0.3,0.2c0,0,0,0-0.1,0c-0.1,0-0.1,0-0.1-0.1c0-0.2,0-0.5,0-1.3
			V139.7z M58.8,146.1c0,0.5,0.1,1,0.4,1.3c0.3,0.3,0.7,0.5,1.1,0.5c1.4,0,2-1.2,2-2.5c0-1.5-0.8-2.7-2.3-2.7c-0.4,0-0.8,0.1-1,0.2
			c-0.1,0.1-0.2,0.3-0.2,0.9V146.1z"/>
		<path class="st0" d="M64.3,151.2c0-0.4,0.3-0.6,0.6-0.6h0.3c0.2,0,0.4-0.1,0.5-0.3c0.4-0.7,0.7-1.3,0.9-1.7c0-0.1,0.1-0.4,0.1-0.6
			c0-0.3-0.1-0.5-0.3-1l-1.2-3.2c-0.3-0.7-0.4-1.1-0.9-1.2l-0.4-0.1c-0.1-0.1-0.1-0.3,0-0.4c0.5,0,0.9,0,1.4,0c0.4,0,0.8,0,1.3,0
			c0.1,0,0.1,0.3,0,0.4l-0.4,0.1c-0.2,0-0.3,0.1-0.3,0.2c0,0.2,0.3,1.2,0.4,1.4l0.5,1.4c0.1,0.2,0.4,1,0.4,1.1c0,0,0.3-0.5,0.6-1.1
			l0.5-1.2c0.3-0.8,0.5-1.3,0.5-1.5c0-0.1-0.1-0.2-0.4-0.3l-0.5-0.1c-0.1-0.1-0.1-0.3,0-0.4c0.5,0,0.9,0,1.3,0c0.4,0,0.7,0,1.1,0
			c0.1,0.1,0.1,0.3,0,0.4l-0.3,0c-0.5,0.1-0.8,0.5-1.3,1.6l-0.8,1.7c-0.5,1-1.7,3.6-2.5,5.2c-0.3,0.6-0.6,0.7-1,0.7
			C64.5,151.8,64.3,151.6,64.3,151.2z"/>
		<path class="st0" d="M75.4,147.3c0-0.5,0.1-1.3,0.3-1.7c0.1-0.1,0.2-0.1,0.3,0c0.1,1.3,0.7,2.3,2.2,2.3c1,0,2.2-0.6,2.2-2.1
			c0-1.1-0.7-1.7-1.5-2.3c-0.8-0.6-1.6-1.5-1.6-2.6c0-1.6,1.3-2.8,3.3-2.8c1,0,1.8,0.4,2.2,0.6c-0.2,0.4-0.4,1.2-0.6,1.7
			c-0.1,0.1-0.3,0.1-0.4,0c0.2-1-0.1-1.9-1.4-1.9c-1.4,0-2,0.9-2,1.9c0,1,0.9,1.7,1.4,2.2c0.9,0.7,1.6,1.5,1.6,2.7
			c0,1.8-1.4,3.1-3.4,3.1C76.9,148.4,75.9,148,75.4,147.3z"/>
		<path class="st0" d="M84.9,143l-1.3,3.9c-0.1,0.3,0,0.4,0.1,0.4c0.2,0,1.2-0.8,1.7-1.3c0.1,0,0.2,0.1,0.2,0.3
			c-0.8,1.2-2.2,2.2-2.9,2.2c-0.2,0-0.4-0.2-0.4-0.4c0-0.2,0.1-0.4,0.2-0.9l1.4-4.1h-1.2c0-0.2,0-0.4,0.2-0.4l1.2-0.2l0.8-1.5
			c0.1-0.1,0.4-0.1,0.6,0.1l-0.4,1.5h1.6c0.1,0.1,0,0.4-0.2,0.6H84.9z"/>
		<path class="st0" d="M88.9,143.4l-0.6,1.9h0.1c0.4-0.8,1.2-2,1.6-2.5c0.3-0.4,0.7-0.8,1.1-0.8c0.5,0,0.6,0.5,0.6,0.7
			c0,0.2-0.1,0.7-0.3,0.9c-0.2,0.2-0.4,0.2-0.5-0.1c-0.1-0.4-0.2-0.6-0.3-0.6c-0.1,0-0.3,0.1-0.5,0.4c-0.9,1.2-1.7,3-2.5,4.7
			c-0.1,0.1-0.1,0.2-0.3,0.2c-0.2,0-0.6-0.1-0.5-0.4c0.2-0.6,1.1-3.2,1.5-4.7c0-0.2,0-0.3-0.1-0.3c-0.4,0-0.8,0.4-1.1,0.8
			c-0.1,0-0.3-0.1-0.2-0.2c0.5-0.8,1-1.4,1.8-1.4C89.3,142,89,143,88.9,143.4z"/>
		<path class="st0" d="M93.2,146.8c-0.1,0.4-0.1,0.5,0.1,0.5c0.2,0,0.8-0.5,1.6-1.2c1.4-1.3,2.1-3.1,2.6-4c0.3-0.1,0.7,0.1,0.7,0.3
			c-0.1,0.4-1.1,2.9-1.7,4.6c-0.1,0.2-0.1,0.4,0.1,0.4c0.3,0,1.1-0.7,1.5-1.2c0.1,0,0.3,0,0.3,0.2c-0.4,0.7-1.8,1.9-2.6,1.9
			c-0.2,0-0.5-0.3-0.4-0.5l1-2.7l0,0c-1.1,1.4-2.9,3.3-3.7,3.3c-0.6,0-0.7-0.6-0.4-1.3l1.4-3.6c0.1-0.3,0.1-0.4,0-0.4
			c-0.3,0-1.1,0.7-1.4,1c-0.1,0-0.3-0.1-0.3-0.2c0.4-0.6,1.9-1.8,2.6-1.8c0.2,0,0.5,0.2,0.4,0.4L93.2,146.8z"/>
		<path class="st0" d="M104,142.9c0,0.6-0.6,0.7-0.7,0.7c-0.1,0-0.3-0.1-0.3-0.3c-0.1-0.4,0-0.8-0.5-0.8c-0.3,0-0.8,0.3-1.3,1
			c-0.5,0.7-1,1.9-1,3.1c0,0.7,0.3,1,0.6,1c0.5,0,1-0.4,1.6-0.9c0.1,0,0.2,0.1,0.2,0.3c-0.6,0.8-1.5,1.4-2.5,1.4
			c-0.6,0-1.1-0.4-1.1-1.6c0-1,0.6-2.7,1.9-3.9c0.6-0.6,1.3-0.9,1.9-0.9C103.6,142,104,142.4,104,142.9z"/>
		<path class="st0" d="M106.8,143l-1.3,3.9c-0.1,0.3,0,0.4,0.1,0.4c0.2,0,1.2-0.8,1.7-1.3c0.1,0,0.2,0.1,0.2,0.3
			c-0.8,1.2-2.2,2.2-2.9,2.2c-0.2,0-0.4-0.2-0.4-0.4c0-0.2,0.1-0.4,0.2-0.9l1.4-4.1h-1.2c0-0.2,0-0.4,0.2-0.4l1.2-0.2l0.8-1.5
			c0.1-0.1,0.4-0.1,0.6,0.1l-0.4,1.5h1.6c0.1,0.1,0,0.4-0.2,0.6H106.8z"/>
		<path class="st0" d="M109.9,146.8c-0.1,0.4-0.1,0.5,0.1,0.5c0.2,0,0.8-0.5,1.6-1.2c1.4-1.3,2.1-3.1,2.6-4c0.3-0.1,0.7,0.1,0.7,0.3
			c-0.1,0.4-1.1,2.9-1.7,4.6c-0.1,0.2-0.1,0.4,0.1,0.4c0.3,0,1.1-0.7,1.5-1.2c0.1,0,0.3,0,0.3,0.2c-0.4,0.7-1.8,1.9-2.6,1.9
			c-0.2,0-0.5-0.3-0.4-0.5l1-2.7l0,0c-1.1,1.4-2.9,3.3-3.7,3.3c-0.6,0-0.7-0.6-0.4-1.3l1.4-3.6c0.1-0.3,0.1-0.4,0-0.4
			c-0.3,0-1.1,0.7-1.4,1c-0.1,0-0.3-0.1-0.3-0.2c0.4-0.6,1.9-1.8,2.6-1.8c0.2,0,0.5,0.2,0.4,0.4L109.9,146.8z"/>
		<path class="st0" d="M118.2,143.4l-0.6,1.9h0.1c0.4-0.8,1.2-2,1.6-2.5c0.3-0.4,0.7-0.8,1.1-0.8c0.5,0,0.6,0.5,0.6,0.7
			c0,0.2-0.1,0.7-0.3,0.9c-0.2,0.2-0.4,0.2-0.5-0.1c-0.1-0.4-0.2-0.6-0.3-0.6c-0.1,0-0.3,0.1-0.5,0.4c-0.9,1.2-1.7,3-2.5,4.7
			c-0.1,0.1-0.1,0.2-0.3,0.2c-0.2,0-0.6-0.1-0.5-0.4c0.2-0.6,1.1-3.2,1.5-4.7c0-0.2,0-0.3-0.1-0.3c-0.4,0-0.8,0.4-1.1,0.8
			c-0.1,0-0.3-0.1-0.2-0.2c0.5-0.8,1-1.4,1.8-1.4C118.6,142,118.4,143,118.2,143.4z"/>
		<path class="st0" d="M125.7,141.7c0.3-0.1,0.6,0,0.7,0.2c-0.2,0.6-1.5,3.9-2,5.2c-0.1,0.3,0,0.3,0.1,0.3c0.3,0,0.7-0.3,1.5-1
			c0.1,0,0.2,0.1,0.2,0.2c-0.6,0.8-1.7,1.7-2.5,1.7c-0.3,0-0.4-0.3-0.4-0.4c0-0.1,0-0.2,0.1-0.6l0.5-1.3l0,0
			c-1.1,1.3-2.6,2.3-3.3,2.3c-0.4,0-0.7-0.4-0.7-0.8c0-0.3,0.3-1.5,1.3-2.9c0.7-1,1.4-1.6,2-1.9c0.6-0.3,1-0.4,1.3-0.4
			c0.2,0,0.3,0,0.4,0.1c0.1,0,0.2,0.2,0.3,0.3L125.7,141.7z M123.1,143.4c-1,0.9-1.9,2.8-1.9,3.9c0,0.2,0.1,0.3,0.2,0.3
			c0.1,0,0.6-0.2,1.4-1c1.1-1.1,1.8-2.3,2-3.2c-0.1-0.3-0.4-0.5-0.7-0.5C123.8,142.8,123.6,143,123.1,143.4z"/>
		<path class="st0" d="M128.2,147.2c-0.1,0.3-0.1,0.5,0.1,0.5c0.3,0,1-0.7,1.7-1.5c0.1,0,0.2,0.1,0.2,0.2c-0.4,0.7-1.3,2-2.6,2
			c-0.4,0-0.6-0.2-0.6-0.4s0.1-0.5,0.3-1.3l2.4-7.1c0.4-1,0.2-1.2,0-1.3l-0.3-0.1c-0.1-0.1-0.1-0.2,0-0.2c0.3-0.1,1.2-0.4,1.9-0.4
			l0.1,0.1c-0.2,0.5-0.3,1-0.9,2.6L128.2,147.2z"/>
		<path class="st0" d="M82.3,159c0.3-1.1,0.4-1.3-0.5-1.4l-0.6-0.1c-0.1-0.1-0.1-0.3,0-0.4c0.7,0,1.2,0,1.8,0c0.6,0,1.3,0,1.7,0
			c0.1,0.1,0.1,0.3,0,0.4l-0.3,0.1c-0.6,0.1-0.6,0.2-1,1.4l-0.5,1.5c-0.1,0.2,0,0.4,0.1,0.4c0,0.1,0,0.1-0.1,0.2
			c-1,0.4-2.3,0.7-3.1,0.7c-2.6,0-4.2-1.4-4.2-3.9c0-1.4,0.6-3.2,2.2-4.6c1.4-1.3,3.1-1.9,5.2-1.9c1.3,0,2.2,0.3,2.6,0.5
			c-0.3,0.5-0.6,1.4-0.7,2c-0.1,0.1-0.3,0.1-0.4,0c0.3-1.4-0.2-2-1.7-2c-1.8,0-2.9,0.7-3.9,1.6c-1.1,1-1.9,3-1.9,4.7
			c0,2.4,1.5,3.1,3,3.1c1,0,1.6-0.1,2-1.1L82.3,159z"/>
		<path class="st0" d="M87.6,156.9l-0.6,1.9H87c0.4-0.8,1.2-2,1.6-2.5c0.3-0.4,0.7-0.8,1.1-0.8c0.5,0,0.6,0.5,0.6,0.7
			c0,0.2-0.1,0.7-0.3,0.9c-0.2,0.2-0.4,0.2-0.5-0.1c-0.1-0.4-0.2-0.6-0.3-0.6c-0.1,0-0.3,0.1-0.5,0.4c-0.9,1.2-1.7,3-2.5,4.7
			c-0.1,0.1-0.1,0.2-0.3,0.2c-0.2,0-0.6-0.1-0.5-0.4c0.2-0.6,1.1-3.2,1.5-4.7c0-0.2,0-0.3-0.1-0.3c-0.4,0-0.8,0.4-1.1,0.8
			c-0.1,0-0.3-0.1-0.2-0.2c0.5-0.8,1-1.4,1.8-1.4C88,155.5,87.7,156.5,87.6,156.9z"/>
		<path class="st0" d="M95,155.1c0.3-0.1,0.6,0,0.7,0.2c-0.2,0.6-1.5,3.9-2,5.2c-0.1,0.3,0,0.3,0.1,0.3c0.3,0,0.7-0.3,1.5-1
			c0.1,0,0.2,0.1,0.2,0.2c-0.6,0.8-1.7,1.7-2.5,1.7c-0.3,0-0.4-0.3-0.4-0.4c0-0.1,0-0.2,0.2-0.6l0.5-1.3l0,0
			c-1.1,1.3-2.6,2.3-3.3,2.3c-0.4,0-0.7-0.4-0.7-0.8c0-0.3,0.3-1.5,1.3-2.9c0.7-1,1.4-1.6,2-1.9c0.6-0.3,1-0.4,1.3-0.4
			c0.2,0,0.3,0,0.4,0.1c0.1,0,0.2,0.2,0.3,0.3L95,155.1z M92.4,156.8c-1,0.9-1.9,2.8-1.9,3.9c0,0.2,0.1,0.3,0.2,0.3
			c0.2,0,0.6-0.2,1.4-1c1.1-1.1,1.8-2.3,2-3.2c-0.1-0.3-0.4-0.5-0.7-0.5C93.2,156.3,92.9,156.4,92.4,156.8z"/>
		<path class="st0" d="M99.6,155.7c0.1,0,0.3,0,0.6,0c0.7,0,2,0.3,2,1.7c0,1.4-0.8,2.6-2,3.5c-0.9,0.8-2.1,0.9-2.1,0.9
			c-0.1,0-0.3,0-0.5-0.1c-0.1,0-0.2,0.1-0.2,0.3l-0.6,1.8c-0.4,1.2-0.4,1.3,0.1,1.4l0.6,0.1c0.1,0.1,0.1,0.3-0.1,0.3
			c-1.1,0-2.3,0.1-3.3,0.1c-0.1-0.1-0.1-0.2,0-0.3l0.3-0.1c0.8-0.1,0.9-0.5,1.1-1.1l2.8-7.8c-0.5,0.2-0.9,0.3-1.5,0.6
			c-0.1,0-0.2-0.1-0.1-0.3c0.5-0.4,1.1-0.6,1.9-0.8l0.4-1.2c0.2-0.2,0.8,0,0.9,0.2L99.6,155.7z M97.9,160.5c-0.1,0.2,0,0.3,0,0.4
			c0.1,0.1,0.3,0.3,0.6,0.3c0.2,0,1-0.2,1.7-1.2c0.7-1.1,0.9-2.2,0.9-2.8c0-0.7-0.5-1.1-1.2-1.1c-0.2,0-0.3,0-0.4,0L97.9,160.5z"/>
		<path class="st0" d="M105.7,153c0.3-1,0.4-1.2,0.2-1.4l-0.3-0.2c0-0.1,0-0.1,0-0.2c0.2-0.1,1.2-0.3,1.7-0.3l0.1,0.1
			c-0.3,0.8-0.8,2.2-1.1,3l-1.5,4.5v0l0,0c1-1.5,1.8-2.1,2.4-2.5c0.5-0.4,1-0.6,1.4-0.6c0.7,0,0.9,0.5,0.9,1c0,1-0.6,2.5-1.2,3.5
			c-0.3,0.5-0.6,0.8-1,1.2c-0.5,0.5-0.9,0.6-1.1,0.6c-0.5,0-0.6-0.3-0.6-0.4c0-0.3,0.2-0.5,0.4-0.5c0.1,0,0.1,0,0.2,0.1
			c0.1,0.1,0.3,0.2,0.4,0.2c0.2,0,0.4-0.2,0.6-0.7c0.4-1,1.1-3,1.1-3.9c0-0.3-0.1-0.4-0.3-0.4c-0.2,0-0.5,0.2-0.8,0.4
			c-0.6,0.5-1.1,1-1.9,2c-0.7,0.9-1.4,2.3-1.8,3.1c-0.1,0.1-0.1,0.2-0.3,0.2c-0.2,0-0.6,0-0.4-0.4L105.7,153z"/>
		<path class="st0" d="M112.1,156.7c0.1-0.2,0.1-0.3,0-0.3s-0.5,0.2-1.2,0.8c-0.1,0-0.2-0.1-0.2-0.3c0.8-0.9,2-1.5,2.5-1.5
			c0.1,0,0.2,0.1,0.2,0.1c0.1,0.1,0.1,0.2-0.1,0.7l-1.8,4.2c-0.1,0.1-0.1,0.3,0,0.3c0.3,0,1-0.5,1.6-1.1c0.2,0,0.2,0.1,0.2,0.3
			c-0.2,0.4-1.8,1.8-2.8,1.8c-0.1,0-0.2,0-0.2-0.1c-0.1-0.1-0.1-0.2-0.1-0.4L112.1,156.7z M114.1,152.5c0,0.5-0.3,0.9-0.8,0.9
			c-0.4,0-0.5-0.3-0.5-0.6c0-0.3,0.2-0.9,0.8-0.9C113.9,151.9,114.1,152.1,114.1,152.5z"/>
		<path class="st0" d="M119.2,156.4c0,0.6-0.6,0.7-0.7,0.7s-0.3-0.1-0.3-0.3c-0.1-0.4,0-0.8-0.5-0.8c-0.3,0-0.8,0.3-1.3,1
			c-0.5,0.7-1,1.9-1,3.1c0,0.7,0.3,1,0.6,1c0.5,0,1-0.4,1.6-0.9c0.1,0,0.2,0.1,0.2,0.3c-0.6,0.8-1.5,1.4-2.5,1.4
			c-0.6,0-1.1-0.4-1.1-1.6c0-1,0.6-2.7,1.9-3.9c0.6-0.6,1.3-0.9,1.9-0.9C118.9,155.5,119.2,155.9,119.2,156.4z"/>
		<path class="st0" d="M122.9,156.3c0,0.2-0.1,0.4-0.3,0.5c-0.1,0-0.2,0-0.3-0.1c-0.3-0.3-0.4-0.5-0.9-0.5c-0.4,0-0.6,0.4-0.6,0.6
			c0,0.3,0.1,0.6,0.5,1.4c0.4,0.6,0.6,1,0.6,1.7c0,0.4-0.2,1-0.8,1.4c-0.4,0.3-0.9,0.5-1.5,0.5c-0.6,0-0.9-0.4-0.9-0.8
			c0-0.1,0.1-0.3,0.2-0.5c0.1-0.1,0.3-0.1,0.4,0c0.2,0.2,0.6,0.6,1,0.6c0.4,0,0.7-0.4,0.7-0.9c0-0.3-0.2-0.7-0.6-1.3
			c-0.4-0.6-0.5-1.1-0.5-1.4c0-0.6,0.3-1,0.9-1.6c0.4-0.4,0.9-0.5,1.1-0.5C122.6,155.5,122.9,156,122.9,156.3z"/>
	</g>
</g>
</svg>
